<?xml version="1.0" encoding="UTF-8" standalone="no"?>
<!DOCTYPE svg PUBLIC "-//W3C//DTD SVG 1.1//EN" "http://www.w3.org/Graphics/SVG/1.1/DTD/svg11.dtd">
<svg xmlns="http://www.w3.org/2000/svg" version="1.1" viewBox="0.00 0.00 250.00 249.00">
<g stroke-width="2.00" fill="none" stroke-linecap="butt">
<path stroke="#a1acfb" vector-effect="non-scaling-stroke" d="
  M 125.35 122.36
  C 144.34 105.62 152.39 80.87 144.57 56.50
  Q 139.14 39.58 125.28 27.58
  Q 125.01 27.34 124.73 27.57
  C 95.20 52.74 94.89 97.08 124.66 122.37
  Q 125.01 122.66 125.35 122.36"
/>
<path stroke="#a1acfb" vector-effect="non-scaling-stroke" d="
  M 29.95 119.83
  C 38.68 149.56 64.68 165.50 95.26 163.83
  Q 95.75 163.80 95.78 163.31
  C 97.00 143.86 90.40 124.78 76.74 111.95
  C 63.59 99.59 45.98 94.31 28.18 95.37
  Q 27.59 95.41 27.55 96.00
  Q 26.69 108.73 29.95 119.83"
/>
<path stroke="#a1acfb" vector-effect="non-scaling-stroke" d="
  M 155.83 162.83
  C 196.21 166.29 224.82 135.73 222.46 95.97
  Q 222.43 95.39 221.85 95.36
  C 182.55 93.20 152.32 122.44 155.20 162.19
  Q 155.24 162.78 155.83 162.83"
/>
<path stroke="#a1acfb" vector-effect="non-scaling-stroke" d="
  M 115.25 202.35
  A 0.40 0.40 0.0 0 1 114.85 202.75
  L 86.40 202.75
  A 0.40 0.40 0.0 0 0 86.00 203.15
  L 86.00 221.60
  A 0.40 0.40 0.0 0 0 86.40 222.00
  L 163.58 222.00
  A 0.40 0.40 0.0 0 0 163.98 221.60
  L 164.00 203.15
  A 0.40 0.40 0.0 0 0 163.60 202.75
  L 135.15 202.75
  A 0.40 0.40 0.0 0 1 134.75 202.35
  L 134.75 144.65
  A 0.40 0.40 0.0 0 0 134.35 144.25
  L 115.65 144.25
  A 0.40 0.40 0.0 0 0 115.25 144.65
  L 115.25 202.35"
/>
</g>
<path fill="#ffffff00" d="
  M 231.76 19.03
  C 235.30 22.58 238.99 28.99 238.99 34.14
  Q 239.00 123.22 239.01 214.47
  C 239.01 223.35 231.91 231.98 224.60 236.07
  C 221.77 237.66 218.39 238.97 215.17 238.97
  Q 131.75 239.00 36.06 239.00
  Q 31.52 239.00 28.20 237.72
  C 19.75 234.46 13.34 227.25 10.94 218.69
  Q 9.63 214.05 9.65 205.73
  Q 9.85 121.91 9.73 39.13
  Q 9.71 26.43 18.68 17.95
  Q 22.28 14.54 26.24 12.49
  C 30.79 10.12 36.20 9.76 41.48 9.76
  Q 125.61 9.74 209.75 9.77
  C 215.25 9.77 221.12 10.78 225.73 14.02
  Q 229.20 16.46 231.76 19.03
  Z
  M 125.35 122.36
  C 144.34 105.62 152.39 80.87 144.57 56.50
  Q 139.14 39.58 125.28 27.58
  Q 125.01 27.34 124.73 27.57
  C 95.20 52.74 94.89 97.08 124.66 122.37
  Q 125.01 122.66 125.35 122.36
  Z
  M 29.95 119.83
  C 38.68 149.56 64.68 165.50 95.26 163.83
  Q 95.75 163.80 95.78 163.31
  C 97.00 143.86 90.40 124.78 76.74 111.95
  C 63.59 99.59 45.98 94.31 28.18 95.37
  Q 27.59 95.41 27.55 96.00
  Q 26.69 108.73 29.95 119.83
  Z
  M 155.83 162.83
  C 196.21 166.29 224.82 135.73 222.46 95.97
  Q 222.43 95.39 221.85 95.36
  C 182.55 93.20 152.32 122.44 155.20 162.19
  Q 155.24 162.78 155.83 162.83
  Z
  M 115.25 202.35
  A 0.40 0.40 0.0 0 1 114.85 202.75
  L 86.40 202.75
  A 0.40 0.40 0.0 0 0 86.00 203.15
  L 86.00 221.60
  A 0.40 0.40 0.0 0 0 86.40 222.00
  L 163.58 222.00
  A 0.40 0.40 0.0 0 0 163.98 221.60
  L 164.00 203.15
  A 0.40 0.40 0.0 0 0 163.60 202.75
  L 135.15 202.75
  A 0.40 0.40 0.0 0 1 134.75 202.35
  L 134.75 144.65
  A 0.40 0.40 0.0 0 0 134.35 144.25
  L 115.65 144.25
  A 0.40 0.40 0.0 0 0 115.25 144.65
  L 115.25 202.35
  Z"
/>
<path fill="#a1acfb" d="
  M 144.57 56.50
  C 152.39 80.87 144.34 105.62 125.35 122.36
  Q 125.01 122.66 124.66 122.37
  C 94.89 97.08 95.20 52.74 124.73 27.57
  Q 125.01 27.34 125.28 27.58
  Q 139.14 39.58 144.57 56.50
  Z"
/>
<path fill="#a1acfb" d="
  M 95.26 163.83
  C 64.68 165.50 38.68 149.56 29.95 119.83
  Q 26.69 108.73 27.55 96.00
  Q 27.59 95.41 28.18 95.37
  C 45.98 94.31 63.59 99.59 76.74 111.95
  C 90.40 124.78 97.00 143.86 95.78 163.31
  Q 95.75 163.80 95.26 163.83
  Z"
/>
<path fill="#a1acfb" d="
  M 222.46 95.97
  C 224.82 135.73 196.21 166.29 155.83 162.83
  Q 155.24 162.78 155.20 162.19
  C 152.32 122.44 182.55 93.20 221.85 95.36
  Q 222.43 95.39 222.46 95.97
  Z"
/>
<path fill="#a1acfb" d="
  M 115.25 202.35
  L 115.25 144.65
  A 0.40 0.40 0.0 0 1 115.65 144.25
  L 134.35 144.25
  A 0.40 0.40 0.0 0 1 134.75 144.65
  L 134.75 202.35
  A 0.40 0.40 0.0 0 0 135.15 202.75
  L 163.60 202.75
  A 0.40 0.40 0.0 0 1 164.00 203.15
  L 163.98 221.60
  A 0.40 0.40 0.0 0 1 163.58 222.00
  L 86.40 222.00
  A 0.40 0.40 0.0 0 1 86.00 221.60
  L 86.00 203.15
  A 0.40 0.40 0.0 0 1 86.40 202.75
  L 114.85 202.75
  A 0.40 0.40 0.0 0 0 115.25 202.35
  Z"
/>
</svg>
